/* XPM */
static char * endrov_xpm[] = {
"32 32 75 1",
" 	c None",
".	c #000000",
"+	c #070702",
"@	c #161808",
"#	c #6F7927",
"$	c #BACA41",
"%	c #21240B",
"&	c #363B13",
"*	c #BBCC41",
"=	c #C3D444",
"-	c #778129",
";	c #0B0C04",
">	c #B7C740",
",	c #BFD043",
"'	c #171908",
")	c #687124",
"!	c #6B7425",
"~	c #121306",
"{	c #BDCD42",
"]	c #B9C941",
"^	c #0C0D04",
"/	c #768029",
"(	c #5D6520",
"_	c #1B1D09",
":	c #C1D243",
"<	c #B2C23E",
"[	c #838E2E",
"}	c #4F561B",
"|	c #282B0E",
"1	c #A9B83B",
"2	c #020201",
"3	c #656E23",
"4	c #3D4315",
"5	c #545B1D",
"6	c #97A535",
"7	c #646D23",
"8	c #2F3310",
"9	c #323712",
"0	c #C2D344",
"a	c #C0D143",
"b	c #A7B53A",
"c	c #899530",
"d	c #94A134",
"e	c #8A9630",
"f	c #040401",
"g	c #ABBA3C",
"h	c #22250C",
"i	c #A4B239",
"j	c #050602",
"k	c #7B862B",
"l	c #353912",
"m	c #080903",
"n	c #B4C33F",
"o	c #B5C53F",
"p	c #090A03",
"q	c #3A3F14",
"r	c #50561C",
"s	c #616A22",
"t	c #B1C03E",
"u	c #5C6420",
"v	c #25290D",
"w	c #7D882C",
"x	c #B3C33E",
"y	c #393E14",
"z	c #636B22",
"A	c #7A852B",
"B	c #4E551B",
"C	c #2B2F0F",
"D	c #080803",
"E	c #A2B039",
"F	c #6A7425",
"G	c #BECF42",
"H	c #3E4316",
"I	c #414717",
"J	c #23260C",
"           ....                 ",
"         ........               ",
"         .........              ",
"        ..........              ",
"        ......+....             ",
"        ....@#$%...             ",
"        ...&*==-....            ",
"        ...;>==,'...            ",
"        ....)===!....           ",
"         ...~{==]^...           ",
"         ..../===(....          ",
"          ..._:==<+...          ",
"          ....[===}...          ",
"         .....|===12...         ",
"        .....'3{===4...         ",
"        ....5*=====6....        ",
"       ....7========8...        ",
"       ...90===ab===c....       ",
"      ....d===e@fg==0h...       ",
"      ...~0==ij..5===k....      ",
"      ...l===(...mn==op...      ",
"      ...q===r....stu^....      ",
"      ...v===w....mj......      ",
"      ...fx==:y...........      ",
"       ...z===aA}BBBBBC...      ",
"       ...DE==========F...      ",
"       ....'G=========F...      ",
"        ....$=========F...      ",
"         ...HIIIIIIIIIJ...      ",
"          ................      ",
"          ...............       ",
"           .............        "};
