/* XPM */
static char * icon_xpm[] = {
"32 32 3 1",
" 	c None",
".	c #313131",
"+	c #FF0000",
"................................",
"................................",
"................................",
"................................",
"................................",
"......++++++++++++++++++........",
"......++++++++++++++++++........",
"......++++++++++++++++++........",
"......++++++++++++++++++........",
"......++++++++++++++++++........",
"......+++++.....................",
"......+++++.....................",
"......+++++.....................",
"......+++++.....................",
"......+++++.....................",
"......+++++++++++++++...........",
"......+++++++++++++++...........",
"......+++++++++++++++...........",
"......+++++++++++++++...........",
"......+++++++++++++++...........",
"......+++++.....................",
"......+++++.....................",
"......+++++.....................",
"......+++++.....................",
"......+++++.....................",
"......+++++++++++++++++++.......",
"......+++++++++++++++++++.......",
"......+++++++++++++++++++.......",
"......+++++++++++++++++++.......",
"......+++++++++++++++++++.......",
"................................",
"................................"};
